<?xml version="1.0" encoding="utf-8"?>
<!-- Generator: Adobe Illustrator 21.0.2, SVG Export Plug-In . SVG Version: 6.00 Build 0)  -->
<svg version="1.1" id="Capa_1" xmlns="http://www.w3.org/2000/svg" xmlns:xlink="http://www.w3.org/1999/xlink" x="0px" y="0px"
	 viewBox="0 0 32 32" enable-background="new 0 0 32 32" xml:space="preserve">
<g>
	<path fill="#036BE8" d="M26.4,19.3c0,1.9,0,3.6,0,6.2c-2.2-2.6-3.9-4.7-5.7-6.7c-0.2,0.2-0.5,0.5-0.7,0.7c-0.1,0.1-0.4,0.2-0.4,0.3
		C19,24,19,24,14.7,23.9c-3.3-0.1-6.4,0.3-8.3,3.5c-0.3,0.4-0.8,0.7-1.6,1.2c-0.1-0.9-0.2-1.5-0.1-2c0.2-2-0.3-3-2.6-2.8
		c-0.6,0.1-1.8-1-1.9-1.6c-0.2-2.8-0.2-5.6,0-8.4c0-0.6,1.3-1.5,2-1.6c1.6-0.2,3.4-0.1,5.5-0.1c0-1.9,0-3.7,0-5.4
		c0-1.8,0.9-2.6,2.6-2.6c6.4,0,12.7,0,19.1,0C31.3,4.1,32,5,32,7c-0.1,2.8,0,5.6,0,8.4c0,3.2-0.3,3.5-3.4,3.7
		C27.9,19,27.2,19.2,26.4,19.3z M7.1,12.8c-1,0-2.1,0.1-3.3,0c-2.1-0.2-3.2,0.4-2.9,2.8c0.2,1.8,0.1,3.7,0,5.6
		c-0.1,1.5,0.4,2,1.9,2.3c1.2,0.2,2.4,1.1,3.6,1.7c1.1-0.5,2.7-1.5,4.4-1.9c1.4-0.4,3-0.1,4.5-0.1c3.7,0,3.9-0.2,2.9-4
		c-1.4,0-2.8,0-4.2,0c-6,0-6,0-6.6-5.7C7.4,13.3,7.3,13.3,7.1,12.8z"/>
	<path fill="#FFFFFF" d="M7.1,12.8c0.2,0.4,0.3,0.5,0.3,0.6c0.7,5.7,0.7,5.7,6.6,5.7c1.4,0,2.9,0,4.2,0c1,3.9,0.8,4-2.9,4
		c-1.5,0-3.1-0.3-4.5,0.1c-1.7,0.4-3.3,1.4-4.4,1.9c-1.2-0.6-2.4-1.6-3.6-1.7c-1.5-0.2-2-0.8-1.9-2.3c0.1-1.9,0.2-3.7,0-5.6
		c-0.2-2.3,0.8-3,2.9-2.8C5,12.9,6.1,12.8,7.1,12.8z M2,16.8c-1.2,4.6-0.7,5.9,1.1,5.5C2.8,20.6,2.5,18.9,2,16.8z"/>
	<path fill="#0060D3" d="M2,16.8c0.4,2.2,0.8,3.8,1.1,5.5C1.3,22.6,0.8,21.3,2,16.8z"/>
</g>
</svg>
