<?xml version="1.0" encoding="utf-8"?>
<!-- Generator: Adobe Illustrator 21.0.2, SVG Export Plug-In . SVG Version: 6.00 Build 0)  -->
<svg version="1.1" id="Capa_1" xmlns="http://www.w3.org/2000/svg" xmlns:xlink="http://www.w3.org/1999/xlink" x="0px" y="0px"
	 viewBox="0 0 32 32" enable-background="new 0 0 32 32" xml:space="preserve">
<g>
	<path fill="#036BE8" d="M30,31c-9.5,0-18.6,0-28,0C2,25.3,2,19.8,2.1,14.3c0-0.8,0.6-1.8,1.3-2.3c2.2-1.8,3.6-3.9,3.1-5.9
		c2.9-1.8,5.1-3.5,7.6-4.6c1.1-0.5,3.3-0.6,4,0.1c2.2,2,4.2,3.9,8,2.9c-1,3.9,0.9,6,3.2,8.1c0.4,0.4,0.8,1,0.8,1.6
		C30,19.7,30,25.3,30,31z M24.8,5.7c-6,0-11.6,0-17.6,0c0,3.7-0.1,7.2,0,10.7c0.1,2.4,3.7,5.1,6.3,5.2c6.6,0.1,10.9-1.6,11.2-5
		C25,13,24.8,9.4,24.8,5.7z M27.4,30.1c-7.8-11.9-17.8-8.8-22.6,0C12.3,30.1,19.7,30.1,27.4,30.1z M3.3,15.1c0,4.9,0,9.1,0,13.6
		c2.4-2.3,4.6-4.5,6.8-6.7C7.9,19.9,5.7,17.7,3.3,15.1z M22.6,21.6c2,2.3,4,4.6,6.2,7.3c0-4.8,0-9,0-13.8
		C26.3,17.7,24.2,20,22.6,21.6z"/>
	<path fill="#FFFFFF" d="M24.8,5.7c0,3.7,0.2,7.3-0.1,10.9c-0.3,3.3-4.6,5.1-11.2,5c-2.6,0-6.2-2.8-6.3-5.2c-0.2-3.5,0-7,0-10.7
		C13.2,5.7,18.9,5.7,24.8,5.7z M10.8,16.7c0,0.1,0,0.2,0,0.4c3.5,0,6.9,0,10.4,0c0-0.1,0-0.2,0-0.4C17.8,16.7,14.3,16.7,10.8,16.7z
		 M10.9,11.9c0,0.1,0,0.2,0,0.4c3.4,0,6.9,0,10.3,0c0-0.1,0-0.2,0-0.4C17.8,11.9,14.3,11.9,10.9,11.9z M21.2,14.7c0-0.1,0-0.3,0-0.4
		c-3.4,0-6.8,0-10.2,0c0,0.1,0,0.3,0,0.4C14.4,14.7,17.8,14.7,21.2,14.7z"/>
	<path fill="#FFFFFF" d="M27.4,30.1c-7.8,0-15.1,0-22.6,0C9.6,21.3,19.7,18.2,27.4,30.1z"/>
	<path fill="#FFFFFF" d="M3.3,15.1c2.5,2.6,4.6,4.7,6.8,7c-2.2,2.1-4.4,4.3-6.8,6.7C3.3,24.3,3.3,20,3.3,15.1z"/>
	<path fill="#FFFFFF" d="M22.6,21.6c1.6-1.7,3.7-3.9,6.2-6.5c0,4.7,0,9,0,13.8C26.6,26.3,24.6,23.9,22.6,21.6z"/>
	<path fill="#036BE8" d="M10.8,16.7c3.5,0,6.9,0,10.4,0c0,0.1,0,0.2,0,0.4c-3.5,0-6.9,0-10.4,0C10.9,16.9,10.9,16.8,10.8,16.7z"/>
	<path fill="#036BE8" d="M10.9,11.9c3.4,0,6.9,0,10.3,0c0,0.1,0,0.2,0,0.4c-3.4,0-6.9,0-10.3,0C10.9,12.1,10.9,12,10.9,11.9z"/>
	<path fill="#036BE8" d="M21.2,14.7c-3.4,0-6.8,0-10.2,0c0-0.1,0-0.3,0-0.4c3.4,0,6.8,0,10.2,0C21.2,14.4,21.2,14.5,21.2,14.7z"/>
</g>
</svg>
