<?xml version="1.0" encoding="utf-8"?>
<!-- Generator: Adobe Illustrator 21.0.2, SVG Export Plug-In . SVG Version: 6.00 Build 0)  -->
<svg version="1.1" id="Capa_1" xmlns="http://www.w3.org/2000/svg" xmlns:xlink="http://www.w3.org/1999/xlink" x="0px" y="0px"
	 viewBox="0 0 32 32" enable-background="new 0 0 32 32" xml:space="preserve">
<path fill="#036BE8" d="M25.3,16.2c0,3.6-0.1,7.3,0,10.9c0.1,2.6-1,3.9-3.7,3.9c-4,0-7.9-0.1-11.9,0c-2.4,0-3.5-1.1-3.5-3.4
	C6.2,19.8,6.1,12,6.3,4.1c0-1.1,1.9-2.8,3-2.9c4.2-0.4,8.4-0.1,12.6-0.1c2.3,0,3.4,1.3,3.4,3.5C25.3,8.4,25.3,12.3,25.3,16.2z
	 M24.2,5.8c-5.8,0-11.2,0-16.8,0c0,6.4,0,12.6,0,19c5.7,0,11.2,0,16.8,0C24.2,18.4,24.2,12.2,24.2,5.8z M23.8,26.1
	c-4.6,0-9.1-0.1-13.6,0.1c-1,0-1.9,1-2.9,1.6c0.9,0.7,1.8,2.1,2.7,2.1c3.7,0.3,7.5,0.1,11.2,0.1C23.5,30,24.5,29,23.8,26.1z
	 M23.5,4.2c0.2-0.3,0.4-0.6,0.6-0.9c-1-0.4-2-1-3-1c-10-0.6-12.2-0.3-13.7,2C12.9,4.2,18.2,4.2,23.5,4.2z"/>
<path fill="#036BE8" d="M26.8,7.3c5.7,3.9,5.8,11.4,0.6,15.6C31.2,17.9,31.5,12.9,26.8,7.3z"/>
<path fill="#036BE8" d="M4.5,7.5c-4.6,5.4-4.6,10.3,0.1,15.8C-1.3,19.6-1.3,10.9,4.5,7.5z"/>
<path fill="#036BE8" d="M25.6,9.6c4.2,3.6,4.1,8-0.2,11.4C28.4,17.2,28.4,13.5,25.6,9.6z"/>
<path fill="#036BE8" d="M5.9,21c-4.2-3.5-4.2-8.1,0-11.5C3,13.4,2.9,17.2,5.9,21z"/>
<path fill="#FFFFFF" d="M24.2,5.8c0,6.3,0,12.5,0,19c-5.6,0-11.1,0-16.8,0c0-6.4,0-12.6,0-19C13,5.8,18.5,5.8,24.2,5.8z M22.7,15.5
	c0-4.2-2.9-7.2-7-7.2c-3.9,0-6.9,2.9-7,6.8c-0.1,4.1,2.9,7.1,7,7.2C19.7,22.4,22.7,19.4,22.7,15.5z"/>
<path fill="#FFFFFF" d="M23.8,26.1c0.7,2.9-0.3,4-2.6,4c-3.7,0-7.5,0.1-11.2-0.1c-1-0.1-1.8-1.4-2.7-2.1c1-0.6,1.9-1.6,2.9-1.6
	C14.7,26,19.2,26.1,23.8,26.1z"/>
<path fill="#FFFFFF" d="M23.5,4.2c-5.3,0-10.6,0-16.1,0c1.5-2.3,3.7-2.6,13.7-2c1,0.1,2,0.7,3,1C23.9,3.6,23.7,3.9,23.5,4.2z"/>
<path fill="#036BE8" d="M22.7,15.5c0,3.9-3.1,6.9-7,6.8c-4.1-0.1-7.1-3.1-7-7.2c0.1-3.9,3.1-6.8,7-6.8C19.9,8.3,22.8,11.3,22.7,15.5
	z M15.5,17.3l0.2,0l0.2,0c1.6,0.3,3.2,0.6,5,0.9c1.7-2.8,1.4-5.3-1.1-7.5c-2.3-2-5.5-2-7.8,0c-2.4,2-2.7,4.7-1.2,7.5
	C12.4,17.9,14,17.6,15.5,17.3z"/>
<path fill="#FFFFFF" d="M15.5,17.3c-1.6,0.3-3.1,0.6-4.9,0.9c-1.5-2.8-1.2-5.5,1.2-7.5c2.3-2,5.5-2,7.8,0c2.5,2.2,2.8,4.7,1.1,7.5
	c-1.7-0.3-3.4-0.6-4.9-0.9c0.8-1,2.1-1.9,2.3-3c0.2-1.1-0.4-2.6-1.1-3.7c-0.3-0.4-2.3-0.5-2.6,0c-0.7,1-1.3,2.5-1.1,3.6
	C13.5,15.4,14.7,16.3,15.5,17.3z"/>
<path fill="#036BE8" d="M15.5,17.3c-0.8-1-2-1.9-2.2-3.1c-0.2-1.1,0.4-2.6,1.1-3.6c0.3-0.4,2.3-0.4,2.6,0c0.7,1,1.3,2.5,1.1,3.7
	c-0.2,1.1-1.5,2-2.3,3c0,0-0.2,0-0.2,0L15.5,17.3z"/>
</svg>
