<?xml version="1.0" encoding="utf-8"?>
<!-- Generator: Adobe Illustrator 21.0.2, SVG Export Plug-In . SVG Version: 6.00 Build 0)  -->
<svg version="1.1" id="Layer_1" xmlns="http://www.w3.org/2000/svg" xmlns:xlink="http://www.w3.org/1999/xlink" x="0px" y="0px"
	 viewBox="0 0 230 60" enable-background="new 0 0 230 60" xml:space="preserve">
<g>
	<path fill="#2575FC" d="M98.1,29.8c0,0.1,0,0.1,0.1,0.2c0.1,0.1,0.2,0.2,0.4,0.4c0.1,0.1,0.2,0.2,0.3,0.3c0.1,0.1,0.2,0.2,0.3,0.3
		c0,0,0.1,0.1,0.2,0.2s0.2,0.1,0.3,0.2c0.1,0.1,0.2,0.1,0.2,0.2c0.1,0.1,0.2,0.1,0.3,0.2c0.1,0,0.1,0.1,0.2,0.2s0.2,0.1,0.3,0.2
		c0.1,0,0.1,0.1,0.1,0.2c0,0.1,0.1,0.2,0.1,0.4l0,0.1l0,0c0,0-0.1,0-0.1,0c0,0-0.1-0.1-0.2-0.1c0,0-0.1,0-0.2-0.1
		c-0.1-0.1-0.3-0.1-0.5-0.2c-0.1-0.1-0.2-0.1-0.3-0.2s-0.2-0.1-0.3-0.2c0,0-0.1-0.1-0.2-0.1c-0.1-0.1-0.2-0.1-0.3-0.2
		c-0.1-0.1-0.2-0.1-0.3-0.2s-0.1-0.1-0.2-0.1C98.1,31.1,98,31,97.9,31s-0.2-0.1-0.2-0.1c0,0,0,0.1,0,0.1c0,0.1-0.1,0.3-0.1,0.5
		c0,0.2-0.1,0.5-0.1,0.7c0,0,0,0.1,0,0.1c0,0,0,0-0.1,0c-0.1,0-0.2,0-0.3-0.1s-0.1-0.1-0.1-0.3c0-0.1,0-0.3,0-0.5
		c0-0.2,0.1-0.3,0.1-0.5c0-0.1,0-0.1,0-0.2c0-0.1,0-0.1,0-0.2c0-0.1-0.1-0.3-0.2-0.3c-0.1-0.1-0.2-0.2-0.2-0.2c0-0.1,0-0.1,0-0.2
		c0,0,0-0.1,0.1-0.1c0.1-0.1,0.2-0.1,0.3-0.2c0,0,0,0,0-0.1c0,0,0-0.1,0-0.1c0,0,0-0.1,0-0.1s0-0.1,0-0.1c0-0.3,0-0.5,0-0.8
		c0,0,0-0.1,0-0.1s0-0.1,0-0.2c0-0.1,0-0.1,0-0.1s0-0.1,0-0.1c0-0.1,0-0.1,0-0.2c0,0,0-0.1,0-0.1c0,0,0-0.1,0-0.2s0-0.1,0-0.2
		c0,0,0-0.1,0-0.2c0-0.1,0-0.1,0-0.2c0-0.1,0-0.2,0.1-0.3c0-0.1,0.1-0.2,0.2-0.3c0.1-0.1,0.2-0.1,0.3-0.2c0.1,0,0.2-0.1,0.3-0.1
		c0,0,0.1,0,0.2,0c0.1,0,0.2,0,0.2,0c0,0,0.1,0,0.3,0.1c0.1,0,0.1,0,0.2,0s0.1,0,0.1,0c0.1,0,0.1,0.1,0.2,0.1s0.1,0,0.1,0
		c0,0,0.1,0,0.1,0c0,0,0.1,0,0.1,0c0,0,0.1,0,0.1,0.1c0.1,0,0.1,0,0.2,0.1c0.1,0.1,0.2,0.1,0.3,0.2c0.1,0.1,0.2,0.1,0.3,0.2
		c0.1,0.1,0.2,0.2,0.2,0.3c0,0.1,0.1,0.2,0.1,0.3c0,0,0,0.1,0,0.1c0,0.1,0,0.1,0,0.2c0,0.1-0.1,0.2-0.1,0.3s-0.2,0.2-0.3,0.3
		c-0.1,0.1-0.3,0.2-0.4,0.3S99.6,29,99.5,29c0,0-0.1,0.1-0.1,0.1c0,0-0.1,0.1-0.2,0.1s-0.2,0.1-0.4,0.2c-0.3,0.1-0.5,0.2-0.6,0.3
		S98.1,29.8,98.1,29.8z M97.6,27.7c0.1,0,0.1-0.1,0.2-0.1s0.1-0.1,0.2-0.1c0,0,0.1,0,0.1,0.1c0.1,0.1,0.1,0.1,0.1,0.2
		c0,0,0,0.1,0,0.1s0,0.2-0.1,0.3C98,28.6,98,28.7,98,28.8s0,0.2-0.1,0.3c0,0,0,0.1,0,0.1c0,0,0,0,0,0.1c0,0,0,0,0,0
		c0.6-0.3,0.9-0.4,0.9-0.5c0,0,0,0,0.1,0s0.1,0,0.1,0l0.1-0.1c0.2-0.1,0.3-0.2,0.5-0.3c0.1-0.1,0.2-0.2,0.3-0.3
		c0.1-0.1,0.1-0.2,0.1-0.3c0-0.1-0.1-0.2-0.2-0.3s-0.3-0.2-0.6-0.3c-0.2-0.1-0.4-0.1-0.6-0.2c-0.2,0-0.3-0.1-0.5-0.1
		c-0.2,0-0.3,0-0.4,0.1c-0.1,0.1-0.1,0.2-0.1,0.3C97.5,27.5,97.5,27.6,97.6,27.7C97.6,27.7,97.6,27.7,97.6,27.7z"/>
	<path fill="#2575FC" d="M100.7,30.8l0.4-0.3c0,0,0,0,0.1-0.1c0,0,0-0.1,0.1-0.1c0,0,0-0.1,0.1-0.1c0,0,0.1,0,0.1-0.1
		c0,0,0.1-0.1,0.1-0.1s0.1-0.1,0.2-0.2c0,0,0.1,0,0.1-0.1c0,0,0.1-0.1,0.2-0.1c0.3-0.3,0.5-0.4,0.7-0.6c0.2-0.1,0.4-0.2,0.5-0.2
		c0.1,0,0.1,0,0.2,0c0,0,0.1,0.1,0.1,0.1c0,0.1,0,0.1,0,0.2c0,0-0.1,0.1-0.1,0.1c-0.1,0.1-0.2,0.1-0.2,0.2c0,0.1-0.1,0.1-0.2,0.2
		c-0.1,0.1-0.1,0.1-0.2,0.2c0,0-0.1,0.1-0.1,0.1c0,0,0,0-0.1,0.1s-0.1,0.1-0.2,0.1c0,0.1-0.1,0.1-0.2,0.3c-0.1,0.1-0.2,0.2-0.4,0.4
		c0,0-0.1,0.1-0.1,0.1s-0.1,0.2-0.2,0.3l0,0c0.1,0,0.1-0.1,0.2-0.1c0.1,0,0.1-0.1,0.2-0.2c0.1-0.1,0.2-0.2,0.2-0.2
		c0.1-0.1,0.1-0.1,0.1-0.1c0,0,0,0,0.1,0s0,0,0.1,0c0.1-0.2,0.3-0.3,0.4-0.4s0.2-0.1,0.3-0.1c0.1,0,0.1,0,0.1,0.1
		c0,0,0.1,0.1,0.1,0.2c0,0.1,0,0.3,0,0.4c0,0.1,0,0.2,0.1,0.3c0.1,0.1,0.1,0.1,0.2,0.1c0,0,0.1,0,0.1,0c0,0,0.1,0,0.1-0.1
		c0,0,0-0.1,0.1-0.1c0,0,0,0,0.1-0.1c0,0,0,0,0,0c0,0,0,0,0.1-0.1c0,0.1,0.1,0.2,0.1,0.2c0,0.1,0,0.1,0.1,0.2
		c-0.1,0.1-0.1,0.1-0.2,0.2c-0.1,0.1-0.1,0.1-0.2,0.2c-0.1,0.1-0.2,0.1-0.3,0.2c-0.1,0-0.2,0.1-0.2,0.1c-0.2,0-0.3-0.1-0.4-0.2
		s-0.2-0.3-0.2-0.5c0,0,0-0.1,0-0.1c0,0,0-0.1,0-0.1c0,0,0,0,0,0s0,0-0.1,0.1c0,0-0.1,0.1-0.1,0.1c-0.1,0-0.1,0.1-0.2,0.2
		c-0.1,0.1-0.2,0.2-0.3,0.3s-0.1,0.1-0.1,0.1c-0.1,0-0.1,0.1-0.2,0.1c-0.1,0-0.2,0.1-0.3,0.2c-0.1,0-0.1,0.1-0.2,0.1s-0.1,0-0.1,0
		c-0.1,0-0.2,0-0.3-0.1c-0.1-0.1-0.1-0.2-0.1-0.3c0-0.1,0-0.2,0.1-0.2c0-0.1,0.1-0.1,0.2-0.2c0,0,0-0.1,0-0.1c0,0,0,0,0,0
		c0,0,0,0,0-0.1c0,0,0-0.1-0.1-0.1c0-0.1,0-0.1-0.1-0.2c0,0,0,0,0-0.1C100.6,30.9,100.7,30.9,100.7,30.8z"/>
	<path fill="#2575FC" d="M103.9,31C103.9,31,104,31,103.9,31c0-0.1,0.1-0.1,0.1-0.1c0,0,0-0.1,0.1-0.1c0,0,0.1-0.1,0.1-0.1
		c0.1-0.1,0.2-0.2,0.2-0.3c0.1-0.1,0.1-0.2,0.2-0.3c0.1-0.2,0.2-0.3,0.2-0.5s0.1-0.2,0.2-0.3c0-0.1,0.1-0.2,0.1-0.3s0.1-0.3,0.2-0.6
		c0.1-0.2,0.2-0.4,0.2-0.5s0.1-0.2,0.1-0.3c0,0,0,0,0-0.1c0,0,0-0.1,0-0.1c0-0.1,0.1-0.3,0.1-0.4c0.1-0.1,0.1-0.2,0.2-0.3
		c0,0,0,0,0.1-0.1c0,0,0,0,0.1,0c0.1,0,0.2,0,0.3,0.1c0.1,0.1,0.1,0.2,0.1,0.4c0,0.2-0.1,0.5-0.2,0.8c-0.1,0.3-0.3,0.8-0.6,1.3
		c-0.1,0.1-0.1,0.2-0.2,0.4s-0.1,0.3-0.2,0.6c0,0.2-0.1,0.3-0.1,0.5s-0.1,0.3-0.1,0.5c0,0.2-0.1,0.3-0.1,0.4c0,0.1,0,0.1,0,0.2
		c0,0,0,0,0,0c0,0,0,0,0,0c0,0,0.1,0,0.1,0c0,0,0,0,0.1-0.1c0.1-0.1,0.1-0.2,0.2-0.3c0.1-0.1,0.1-0.2,0.2-0.4l0-0.1
		c0-0.2,0.1-0.3,0.1-0.4s0.2-0.1,0.4-0.2c0,0,0.1-0.1,0.2-0.2c0.1-0.1,0.2-0.4,0.4-0.7c0.1-0.2,0.2-0.3,0.2-0.3s0.1-0.1,0.1-0.1
		c0.1,0,0.1,0,0.1,0.1s0,0.1,0,0.2c0,0.2-0.1,0.5-0.4,0.9s-0.4,0.6-0.4,0.7c0,0.1,0.1,0.2,0.2,0.3c0.1,0.2,0.2,0.2,0.3,0.2
		c0,0,0.1,0,0.1,0c0,0,0.1,0,0.1-0.1c0,0,0.1-0.1,0.1-0.1c0,0,0.1-0.1,0.1-0.1l0.2,0.4c-0.1,0.1-0.1,0.1-0.2,0.2
		c-0.1,0.1-0.1,0.1-0.2,0.2c-0.1,0.1-0.2,0.1-0.3,0.2c-0.1,0-0.2,0.1-0.3,0.1c-0.1,0-0.2-0.1-0.4-0.3c-0.2-0.2-0.3-0.3-0.3-0.3
		c-0.1,0.1-0.2,0.2-0.3,0.3c-0.1,0.1-0.1,0.1-0.2,0.2c-0.1,0.1-0.1,0.1-0.2,0.2c0,0,0,0-0.1,0.1s-0.1,0.1-0.1,0.1
		c0,0.1-0.1,0.1-0.1,0.2c-0.1,0.1-0.1,0.1-0.2,0.1c-0.1,0-0.2,0-0.3-0.1s-0.1-0.2-0.1-0.3c0-0.1,0-0.3,0-0.4c0-0.2,0.1-0.3,0.1-0.5
		c0-0.1,0-0.2,0-0.2s0-0.1,0-0.2l0,0c0,0-0.1,0.1-0.1,0.2s-0.1,0.1-0.2,0.2c0,0,0,0,0,0c0,0,0,0.1-0.1,0.1c0,0,0-0.1-0.1-0.1
		C104,31.2,104,31.2,103.9,31C104,31.1,104,31.1,103.9,31C104,31,103.9,31,103.9,31z"/>
	<path fill="#2575FC" d="M107.4,31c0-0.1,0.1-0.1,0.1-0.2s0.1-0.1,0.2-0.2c0-0.1,0-0.1,0-0.2c0-0.1,0-0.1,0-0.2c0,0,0-0.1,0-0.1
		c0-0.1,0-0.1,0.1-0.2c0-0.1,0.1-0.1,0.1-0.2c0-0.1,0.1-0.2,0.2-0.3c0.1-0.1,0.1-0.1,0.2-0.2c0.1-0.1,0.1-0.2,0.2-0.2
		c0,0,0.1-0.1,0.1-0.1s0.1,0,0.1-0.1c0,0,0.1,0,0.1,0s0.1,0,0.1,0c0.1,0,0.1,0,0.2,0c0,0,0.1,0,0.1,0.1c0,0,0,0.1,0.1,0.1
		c0,0,0,0.1,0.1,0.2c0,0.1,0,0.1,0,0.2c0,0,0,0,0,0c0,0,0,0.1,0,0.2l0,0.1c0,0.1-0.1,0.3-0.3,0.5s-0.3,0.4-0.6,0.6c0,0,0,0-0.1,0.1
		c0,0,0,0.1,0,0.1c0,0.1,0,0.1,0,0.2c0,0,0.1,0.1,0.1,0.1c0,0,0.1,0,0.1,0.1c0.1,0,0.1,0,0.2,0c0.1,0,0.2,0,0.3-0.1s0.2-0.1,0.3-0.1
		c0,0,0,0,0.1,0c0,0,0.1,0,0.1-0.1c0,0.1,0.1,0.2,0.1,0.2c0,0.1,0.1,0.1,0.1,0.2c-0.2,0.2-0.3,0.3-0.5,0.4c-0.1,0.1-0.3,0.1-0.4,0.1
		c0,0-0.1,0-0.2,0.1c-0.1,0-0.1,0-0.2,0c-0.1,0-0.2,0-0.3,0c-0.1,0-0.2-0.1-0.2-0.1c0,0-0.1-0.1-0.1-0.1c0-0.1-0.1-0.1-0.1-0.2
		c0-0.1-0.1-0.1-0.1-0.1c0,0,0,0-0.1,0c0,0,0,0-0.1,0c0,0-0.1,0.1-0.1,0.1c0,0,0-0.1-0.1-0.2S107.4,31.1,107.4,31z M108.8,29.6
		c-0.1,0-0.2,0.1-0.3,0.3c-0.1,0.2-0.2,0.3-0.2,0.4c0,0,0,0,0,0c0,0,0,0,0,0c0,0,0.1,0,0.1-0.1c0,0,0-0.1,0.1-0.1
		c0,0,0.1-0.1,0.1-0.1c0,0,0.1-0.1,0.1-0.1c0,0,0.1-0.1,0.1-0.1S108.9,29.7,108.8,29.6C108.9,29.6,108.9,29.6,108.8,29.6
		C108.8,29.6,108.8,29.6,108.8,29.6z"/>
	<path fill="#2575FC" d="M109.6,31L109.6,31c0-0.1,0.1-0.1,0.1-0.2c0,0,0.1-0.1,0.2-0.1c0.1-0.1,0.2-0.1,0.2-0.1
		c0.1,0,0.1-0.1,0.1-0.1c0,0,0-0.1,0.1-0.1c0,0,0.1-0.1,0.1-0.1s0.1-0.1,0.2-0.1c0,0,0,0,0.1-0.1s0-0.1,0.1-0.1c0,0,0.1-0.1,0.1-0.1
		c0,0,0.1-0.1,0.2-0.2c0.1-0.1,0.2-0.2,0.2-0.3c0.1-0.1,0.2-0.2,0.3-0.3c0,0,0.1,0,0.1,0c0,0,0.1,0,0.1,0c0.1,0,0.2,0,0.3,0.1
		c0.1,0.1,0.1,0.2,0.1,0.3c0,0,0,0.1,0,0.1c0,0.1,0,0.2,0,0.3c0,0.3-0.1,0.5-0.1,0.5s-0.1,0.3-0.2,0.6c0,0.1,0,0.1-0.1,0.2
		c0,0.1-0.1,0.2-0.1,0.3c0,0,0,0,0,0c0,0,0.1,0,0.1-0.1c0.1,0,0.1-0.1,0.2-0.2c0.1-0.1,0.2-0.2,0.2-0.2s0.1-0.1,0.1-0.1
		c0,0.1,0.1,0.2,0.1,0.2c0,0.1,0.1,0.1,0.1,0.2c0,0-0.1,0-0.1,0.1c0,0-0.1,0.1-0.1,0.1c-0.1,0-0.1,0.1-0.2,0.1
		c-0.1,0.1-0.2,0.1-0.3,0.2c0,0-0.1,0.1-0.2,0.2c-0.1,0.1-0.2,0.1-0.3,0.2l-0.1,0c0,0.1-0.1,0.1-0.1,0.1c0,0-0.1,0-0.1,0.1
		c0,0-0.1,0-0.1,0c0,0-0.1,0-0.1,0.1c0,0-0.1,0-0.1-0.1s0-0.1,0-0.1c0-0.1-0.1-0.2-0.1-0.3s0-0.2,0-0.3c0,0,0,0,0-0.1s0,0,0-0.1
		c0-0.1,0-0.1,0-0.1c0-0.1,0-0.2,0.1-0.2c0.1-0.1,0.1-0.1,0.2-0.1c0,0,0.1,0,0.1,0.1c0,0,0,0.1,0.1,0.1s0,0,0.1-0.1
		c0-0.1,0-0.2,0.1-0.4c0-0.1,0-0.3,0-0.4s0-0.2,0-0.2c0,0,0-0.1,0-0.1c0,0,0,0-0.1,0s-0.2,0.1-0.4,0.3s-0.5,0.4-0.9,0.8
		c0,0,0,0,0,0.1c0,0,0,0.1-0.1,0.1c0,0,0-0.1-0.1-0.2S109.7,31.1,109.6,31z"/>
	<path fill="#2575FC" d="M112.4,31c0.1-0.1,0.1-0.1,0.1-0.1s0.1-0.1,0.1-0.1c0,0,0.1-0.1,0.1-0.1s0-0.1,0-0.1c0-0.1,0.1-0.2,0.1-0.4
		s0.1-0.3,0.1-0.5c0-0.1,0.1-0.1,0.1-0.2c0-0.1,0.1-0.2,0.1-0.3c0-0.1,0.1-0.3,0.1-0.4s0.1-0.2,0.2-0.3c0,0,0-0.1,0.1-0.1
		c0,0,0-0.1,0.1-0.1c0,0,0-0.1,0.1-0.2c0-0.1,0.1-0.1,0.1-0.2c0.1-0.2,0.2-0.3,0.3-0.5s0.2-0.2,0.2-0.3c0.1-0.1,0.2-0.2,0.3-0.4
		c0.1-0.1,0.2-0.2,0.3-0.3c0.1-0.1,0.2-0.1,0.3-0.2c0.1,0,0.1-0.1,0.2-0.1c0,0,0.1,0.1,0.1,0.1c0,0,0,0,0.1,0c0.1,0,0.1,0,0.2,0.1
		s0.1,0.2,0.1,0.3c0,0,0,0.1,0,0.1c0,0,0,0.1,0,0.2c0,0,0,0,0,0.1s0,0.1,0,0.1c0,0,0,0.1,0,0.1s0,0.1,0,0.1c0,0.1-0.1,0.2-0.1,0.3
		c0,0.1-0.1,0.2-0.1,0.4c0,0-0.1,0.1-0.1,0.2s-0.1,0.2-0.2,0.3c0,0.1-0.1,0.1-0.1,0.2c0,0.1-0.1,0.2-0.2,0.3c0,0,0,0.1-0.1,0.1
		c0,0-0.1,0.1-0.2,0.2c0,0-0.1,0.1-0.1,0.2c-0.1,0.1-0.2,0.3-0.3,0.4c-0.1,0.1-0.2,0.2-0.3,0.3s-0.2,0.3-0.4,0.5
		c-0.1,0.2-0.1,0.4-0.1,0.6c0,0.2,0,0.3,0,0.4c0,0,0,0.1,0,0.1c0,0,0,0,0,0c0,0,0,0,0.1-0.1c0,0,0.1-0.1,0.1-0.1
		c0.1,0,0.1-0.1,0.2-0.3c0.1-0.1,0.2-0.3,0.3-0.5c0.1-0.2,0.2-0.3,0.2-0.4c0.1-0.1,0.1-0.2,0.2-0.2l0.2-0.1c0,0,0.1,0,0.1,0
		s0,0,0.1,0c0,0,0.1,0,0.1,0.1s0.1,0.1,0.1,0.2c0,0.1,0.1,0.3,0.1,0.3s0,0.1,0,0.1c0,0.1,0.1,0.2,0.1,0.2c0.1,0,0.1,0.1,0.2,0.1
		c0.1,0,0.2,0,0.3-0.1c0,0.1,0.1,0.1,0.1,0.2c0,0.1,0.1,0.1,0.1,0.2c-0.1,0-0.1,0.1-0.2,0.1c-0.1,0-0.1,0.1-0.2,0.1
		c0,0-0.1,0-0.2,0.1c-0.1,0-0.2,0-0.3,0c-0.2,0-0.3-0.1-0.4-0.3c-0.1-0.2-0.2-0.3-0.2-0.2h0c0,0.1-0.1,0.1-0.1,0.2
		c-0.1,0.1-0.1,0.1-0.2,0.2c0,0.1-0.1,0.1-0.1,0.2s-0.1,0.2-0.2,0.3c-0.1,0.1-0.2,0.2-0.3,0.3s-0.1,0.1-0.2,0.1c-0.1,0-0.2,0-0.3,0
		c-0.1,0-0.1-0.1-0.1-0.1c0-0.2-0.1-0.3-0.1-0.4c0-0.1,0-0.2,0-0.3c0,0,0,0,0-0.1s0,0,0-0.1c0,0,0-0.1,0-0.1c0,0,0,0,0,0
		c0,0,0,0,0,0c0,0,0,0,0,0s0,0-0.1,0c0,0,0-0.1-0.1-0.2C112.4,31.2,112.4,31.1,112.4,31z M115.2,26.9c0,0-0.1,0.1-0.2,0.2
		s-0.2,0.3-0.4,0.5c-0.1,0.1-0.2,0.3-0.3,0.4s-0.2,0.2-0.2,0.4c0,0-0.1,0.1-0.1,0.1c0,0,0,0.1,0,0.1c-0.1,0.2-0.1,0.3-0.2,0.5
		c-0.1,0.2-0.1,0.3-0.1,0.4c0,0.1-0.1,0.1-0.1,0.1l0,0c0.1-0.1,0.1-0.1,0.1-0.2c0.1-0.1,0.1-0.2,0.2-0.3c0.1-0.1,0.2-0.2,0.3-0.4
		c0.1-0.1,0.2-0.3,0.3-0.5c0.1-0.2,0.2-0.4,0.4-0.7c0.1-0.1,0.1-0.3,0.2-0.4C115.3,27.1,115.3,27.1,115.2,26.9
		C115.3,27,115.3,27,115.2,26.9C115.3,27,115.2,26.9,115.2,26.9z"/>
	<path fill="#2575FC" d="M121.9,31c0.1,0.3,0.2,0.4,0.2,0.4c-0.1,0.1-0.1,0.1-0.2,0.2s-0.2,0.2-0.4,0.3c-0.2,0.1-0.3,0.2-0.4,0.2
		c-0.1,0-0.2,0.1-0.2,0.1c-0.1,0-0.2,0-0.3-0.1c-0.1-0.1-0.2-0.2-0.2-0.3c0,0,0,0,0-0.1c0,0,0,0,0-0.1c-0.1-0.1-0.1-0.1-0.2-0.2
		c0,0-0.1-0.1-0.2-0.3c-0.1-0.1-0.2-0.3-0.3-0.5c-0.1-0.1-0.1-0.2-0.2-0.3s-0.1-0.2-0.2-0.3c0,0,0,0.1-0.1,0.2c0,0.1,0,0.3-0.1,0.4
		c0,0,0,0.1,0,0.1c0,0.1,0,0.1,0,0.1c0,0,0,0,0,0.1c0,0,0,0.1,0,0.1c0,0.1,0,0.2,0,0.4s0,0.3,0,0.4c0,0.1,0,0.1,0,0.2
		c0,0-0.1,0.1-0.1,0.1c-0.1,0-0.1,0-0.1,0c0,0-0.1,0-0.1,0c0,0-0.1,0-0.1-0.1c0,0,0-0.1,0-0.2c0,0,0-0.1,0-0.1s0-0.1,0-0.1
		c0,0,0-0.1,0-0.1c0-0.1,0-0.1,0-0.1s0-0.1,0-0.2c0-0.1,0-0.3,0.1-0.5c0-0.2,0-0.4,0.1-0.6s0-0.2,0-0.3c0,0,0,0,0-0.1s0-0.1,0-0.1
		l-0.1-0.3c0-0.1,0.1-0.3,0.1-0.6c0-0.3,0.1-0.6,0.1-1c0-0.2,0-0.4,0.1-0.5s0-0.2,0-0.2c0-0.1,0.1-0.2,0.2-0.3s0.2-0.1,0.3-0.2
		c0,0,0,0,0.1,0c0,0,0.1,0,0.1-0.1c0,0,0.1,0,0.1,0.2s0.1,0.2,0.1,0.2c0,0,0,0.1,0,0.1c0,0,0,0.1,0,0.1c0,0.1,0,0.1,0,0.2
		s0,0.1,0,0.1c0,0.2-0.1,0.4-0.2,0.6s-0.1,0.5-0.2,0.9c0,0,0,0.1,0,0.1c0,0,0,0.1,0,0.1c0,0,0,0.1,0,0.1s0,0.1,0,0.1
		c0,0,0,0.1,0,0.1c0.1,0,0.2-0.2,0.4-0.4c0.2-0.2,0.4-0.5,0.7-0.9c0.3-0.4,0.5-0.7,0.7-0.9c0.2-0.2,0.2-0.4,0.2-0.5
		c0,0,0-0.1-0.1-0.1c0-0.1-0.1-0.1-0.1-0.1c0-0.1,0-0.1,0.1-0.2c0.1-0.1,0.2-0.1,0.3-0.1c0,0,0.1,0,0.1-0.1c0.1,0,0.1-0.1,0.2-0.1
		c0,0,0.1,0,0.1,0c0,0,0.1-0.1,0.1-0.1c0,0,0.1,0.1,0.1,0.1c0,0.1,0,0.1,0,0.2c0,0.1,0,0.3,0,0.4c0,0.1-0.1,0.2-0.2,0.3
		c0,0,0,0-0.1,0.1s0,0-0.1,0.1c0,0.1-0.1,0.2-0.2,0.3s-0.2,0.3-0.3,0.4c-0.3,0.3-0.5,0.6-0.7,0.8s-0.4,0.4-0.6,0.6
		c-0.1,0.1-0.1,0.1-0.2,0.2c0,0-0.1,0.1-0.1,0.1c0,0.1,0.1,0.2,0.1,0.3c0.1,0.2,0.1,0.3,0.2,0.5c0.1,0.2,0.2,0.3,0.2,0.5
		c0.1,0.2,0.2,0.4,0.4,0.6c0.1,0.1,0.2,0.2,0.3,0.2c0,0,0.1,0,0.1-0.1c0.1,0,0.2-0.1,0.3-0.1c0,0,0.1-0.1,0.2-0.1
		C121.8,31.1,121.9,31,121.9,31z"/>
	<path fill="#2575FC" d="M121.9,31C121.9,31,121.9,31,121.9,31c0.1-0.1,0.1-0.2,0.1-0.2l0.3-0.2c0,0,0.1-0.1,0.2-0.2
		s0.2-0.2,0.3-0.3c0,0,0-0.1,0.1-0.1c0,0,0.1-0.1,0.1-0.1c0,0,0.1-0.1,0.1-0.1c0,0,0.1-0.1,0.1-0.1c0,0,0.1-0.1,0.1-0.1
		c0,0,0.1-0.1,0.1-0.1c0,0,0.1-0.1,0.1-0.1s0.1,0,0.2,0c0.1,0,0.1,0,0.1,0c0,0,0.1,0,0.1,0.1c0,0.1-0.1,0.1-0.1,0.2l0,0
		c0.1,0,0.2-0.1,0.3-0.1s0.1,0,0.1,0c0.2,0,0.4,0.1,0.5,0.2c0.1,0.1,0.2,0.3,0.2,0.6c0,0,0,0.1,0,0.2s0,0.1-0.1,0.2
		c0,0.1-0.1,0.2-0.1,0.2c0,0.1-0.1,0.1-0.1,0.1c0,0,0,0.1,0,0.1c0,0,0,0,0.1,0s0,0,0.1,0c0,0,0.1,0,0.1-0.1c0,0.1,0.1,0.1,0.1,0.2
		c0,0.1,0.1,0.1,0.1,0.2c-0.1,0-0.1,0.1-0.2,0.1s-0.1,0.1-0.2,0.1c-0.1,0.1-0.1,0.1-0.2,0.1c-0.1,0-0.1,0-0.2,0c-0.1,0-0.1,0-0.2,0
		s-0.1-0.1-0.1-0.1c-0.1,0.1-0.2,0.2-0.3,0.3c-0.1,0.1-0.2,0.1-0.3,0.2c-0.1,0-0.1,0.1-0.2,0.1c-0.1,0-0.1,0-0.2,0c0,0,0,0-0.1,0
		c0,0-0.1,0-0.1,0c-0.2,0-0.3-0.1-0.5-0.2c-0.1-0.1-0.2-0.3-0.2-0.5c0-0.1,0-0.2,0-0.3c0-0.1,0-0.2,0-0.2s0,0,0-0.1c0,0,0,0-0.1,0
		c0,0,0,0-0.1,0.1s-0.1,0.1-0.2,0.2c0,0,0,0,0,0.1s0,0-0.1,0.1c0-0.1,0-0.1-0.1-0.2S121.9,31.1,121.9,31z M124,30.2
		C124,30.2,124,30.2,124,30.2c-0.1,0.1-0.1,0.1-0.1,0.1c0,0.1-0.1,0.1-0.1,0.2c0,0-0.1,0.1-0.1,0.1c0,0-0.1,0-0.1,0
		c0,0-0.1,0-0.1,0.1c0,0.1-0.1,0.1-0.1,0.2c0,0.1-0.1,0.2-0.1,0.2s0,0.1,0,0.2c0,0.1,0,0.1,0.1,0.2s0.1,0.1,0.2,0.1
		c0.1,0,0.3,0,0.4-0.1c0.1-0.1,0.2-0.2,0.3-0.3c0-0.1,0.1-0.1,0.1-0.2c0,0,0,0,0.1-0.1c0,0,0-0.1,0-0.1l0.1-0.3
		c0-0.1-0.1-0.2-0.1-0.2c0-0.1,0-0.1-0.1-0.1c0,0,0,0-0.1,0C124.2,30.2,124.1,30.2,124,30.2z"/>
	<path fill="#2575FC" d="M125.1,31c0.1-0.1,0.1-0.1,0.1-0.1s0.1-0.1,0.1-0.1c0,0,0.1-0.1,0.1-0.1s0-0.1,0-0.1c0-0.1,0.1-0.2,0.1-0.4
		s0.1-0.3,0.1-0.5c0-0.1,0.1-0.1,0.1-0.2c0-0.1,0.1-0.2,0.1-0.3c0-0.1,0.1-0.3,0.1-0.4s0.1-0.2,0.2-0.3c0,0,0-0.1,0.1-0.1
		c0,0,0-0.1,0.1-0.1c0,0,0-0.1,0.1-0.2c0-0.1,0.1-0.1,0.1-0.2c0.1-0.2,0.2-0.3,0.3-0.5s0.2-0.2,0.2-0.3c0.1-0.1,0.2-0.2,0.3-0.4
		c0.1-0.1,0.2-0.2,0.3-0.3c0.1-0.1,0.2-0.1,0.3-0.2c0.1,0,0.1-0.1,0.2-0.1c0,0,0.1,0.1,0.1,0.1c0,0,0,0,0.1,0c0.1,0,0.1,0,0.2,0.1
		s0.1,0.2,0.1,0.3c0,0,0,0.1,0,0.1c0,0,0,0.1,0,0.2c0,0,0,0,0,0.1s0,0.1,0,0.1c0,0,0,0.1,0,0.1s0,0.1,0,0.1c0,0.1-0.1,0.2-0.1,0.3
		c0,0.1-0.1,0.2-0.1,0.4c0,0-0.1,0.1-0.1,0.2s-0.1,0.2-0.2,0.3c0,0.1-0.1,0.1-0.1,0.2c0,0.1-0.1,0.2-0.2,0.3c0,0,0,0.1-0.1,0.1
		c0,0-0.1,0.1-0.2,0.2c0,0-0.1,0.1-0.1,0.2c-0.1,0.1-0.2,0.3-0.3,0.4c-0.1,0.1-0.2,0.2-0.3,0.3s-0.2,0.3-0.4,0.5
		c-0.1,0.2-0.1,0.4-0.1,0.6c0,0.2,0,0.3,0,0.4c0,0,0,0.1,0,0.1c0,0,0,0,0,0c0,0,0,0,0.1-0.1c0,0,0.1-0.1,0.1-0.1
		c0.1,0,0.1-0.1,0.2-0.3c0.1-0.1,0.2-0.3,0.3-0.5c0.1-0.2,0.2-0.3,0.2-0.4c0.1-0.1,0.1-0.2,0.2-0.2l0.2-0.1c0,0,0.1,0,0.1,0
		s0,0,0.1,0c0,0,0.1,0,0.1,0.1s0.1,0.1,0.1,0.2c0,0.1,0.1,0.3,0.1,0.3s0,0.1,0,0.1c0,0.1,0.1,0.2,0.1,0.2c0.1,0,0.1,0.1,0.2,0.1
		c0.1,0,0.2,0,0.3-0.1c0,0.1,0,0.1,0.1,0.2c0,0.1,0.1,0.1,0.1,0.2c-0.1,0-0.1,0.1-0.2,0.1c-0.1,0-0.1,0.1-0.2,0.1c0,0-0.1,0-0.2,0.1
		c-0.1,0-0.2,0-0.3,0c-0.2,0-0.3-0.1-0.4-0.3c-0.1-0.2-0.2-0.3-0.2-0.2h0c0,0.1-0.1,0.1-0.1,0.2c-0.1,0.1-0.1,0.1-0.2,0.2
		c0,0.1-0.1,0.1-0.1,0.2s-0.1,0.2-0.2,0.3c-0.1,0.1-0.2,0.2-0.3,0.3s-0.1,0.1-0.2,0.1c-0.1,0-0.2,0-0.3,0c-0.1,0-0.1-0.1-0.1-0.1
		c0-0.2-0.1-0.3-0.1-0.4c0-0.1,0-0.2,0-0.3c0,0,0,0,0-0.1s0,0,0-0.1c0,0,0-0.1,0-0.1c0,0,0,0,0,0c0,0,0,0,0,0c0,0,0,0,0,0s0,0-0.1,0
		c0,0,0-0.1-0.1-0.2C125.1,31.2,125.1,31.1,125.1,31z M127.9,26.9c0,0-0.1,0.1-0.2,0.2s-0.2,0.3-0.4,0.5c-0.1,0.1-0.2,0.3-0.3,0.4
		s-0.2,0.2-0.2,0.4c0,0-0.1,0.1-0.1,0.1c0,0,0,0.1,0,0.1c-0.1,0.2-0.1,0.3-0.2,0.5c-0.1,0.2-0.1,0.3-0.1,0.4c0,0.1-0.1,0.1-0.1,0.1
		l0,0c0.1-0.1,0.1-0.1,0.1-0.2c0.1-0.1,0.1-0.2,0.2-0.3c0.1-0.1,0.2-0.2,0.3-0.4c0.1-0.1,0.2-0.3,0.3-0.5c0.1-0.2,0.2-0.4,0.4-0.7
		c0.1-0.1,0.1-0.3,0.2-0.4C128,27.1,128,27.1,127.9,26.9C128,27,128,27,127.9,26.9C128,27,127.9,26.9,127.9,26.9z"/>
	<path fill="#2575FC" d="M128.3,31c0,0,0.1-0.1,0.1-0.1s0.1-0.1,0.1-0.1l0.3-0.3c0,0,0,0,0,0c0,0,0,0,0-0.1c0,0,0-0.1,0-0.1
		c0-0.1,0-0.2,0-0.3s0-0.3,0.1-0.3l0-0.1c0-0.2,0.1-0.4,0.2-0.6c0.1-0.2,0.1-0.5,0.2-0.8c0,0,0.1-0.1,0.1-0.2c0-0.1,0.1-0.2,0.1-0.2
		c0-0.2,0.1-0.3,0.2-0.5s0.2-0.3,0.3-0.5c0.1-0.2,0.3-0.4,0.4-0.5c0.1-0.1,0.2-0.2,0.3-0.2c0.2,0,0.3,0,0.3,0.1
		c0.1,0.1,0.1,0.2,0.1,0.4c0,0,0,0.1,0,0.2c0,0.1,0,0.2,0,0.2s0,0.1,0,0.2s0,0.2,0,0.3c0,0,0,0,0,0.1l0,0.1c0,0,0,0.1-0.1,0.1
		s-0.1,0.1-0.1,0.2c0,0.1,0,0.2-0.1,0.3s-0.1,0.2-0.1,0.3c0,0,0,0.1-0.1,0.1c0,0-0.1,0.1-0.1,0.1c0,0,0,0.1,0,0.1s0,0.1-0.1,0.2
		c0,0,0,0.1-0.1,0.1s-0.1,0.1-0.1,0.2c0,0,0,0.1-0.1,0.1s0,0.1-0.1,0.1c0,0-0.1,0.1-0.1,0.2s-0.1,0.2-0.2,0.3
		c-0.1,0.2-0.2,0.3-0.3,0.5c0,0.3,0.1,0.5,0.2,0.6c0.1,0.1,0.3,0.2,0.5,0.2c0,0,0.1,0,0.1,0s0.2-0.1,0.3-0.1c0,0,0.1-0.1,0.1-0.1
		c0.1,0,0.1-0.1,0.2-0.2l0.2,0.4c-0.1,0.1-0.2,0.1-0.2,0.2s-0.2,0.1-0.2,0.2c-0.1,0.1-0.2,0.1-0.3,0.2c-0.1,0-0.2,0.1-0.3,0.1
		c0,0-0.1,0-0.2,0c-0.1,0-0.2,0-0.2,0c-0.2,0-0.3-0.1-0.4-0.2c-0.1-0.1-0.2-0.3-0.2-0.6c0,0,0,0,0-0.1c0,0,0,0-0.1-0.1
		c0,0-0.1,0.1-0.1,0.1c-0.1,0.1-0.1,0.1-0.2,0.2L128.3,31z M130.4,27.6L130.4,27.6c-0.2,0.1-0.3,0.3-0.4,0.4
		c-0.1,0.1-0.1,0.3-0.1,0.4c0,0,0,0.1,0,0.1c0,0,0,0.1-0.1,0.2c0,0.1-0.1,0.2-0.1,0.3c-0.1,0.2-0.1,0.3-0.1,0.4s0,0.2,0,0.2l0,0
		c0,0,0.1,0,0.1-0.1s0.1-0.1,0.1-0.2c0-0.1,0.1-0.1,0.1-0.2s0.1-0.2,0.1-0.3c0-0.1,0.1-0.2,0.2-0.5s0.2-0.4,0.2-0.5
		c0-0.1,0-0.1,0-0.2C130.4,27.7,130.4,27.6,130.4,27.6z"/>
	<path fill="#2575FC" d="M130.8,31L130.8,31L130.8,31c0.1-0.2,0.3-0.3,0.5-0.5c0.2-0.2,0.3-0.3,0.4-0.4c0,0,0.1-0.1,0.1-0.1
		s0.1,0,0.1,0c0.1,0,0.2,0,0.3,0.1s0.1,0.1,0.1,0.2c0,0.1,0,0.2,0.1,0.3c0,0.1,0,0.2,0,0.3c0,0.1,0,0.1,0.1,0.3
		c0,0.1,0.1,0.2,0.1,0.2c0,0,0,0,0.1,0.1c0,0,0.1,0,0.1,0c0.1,0,0.1,0,0.2,0c0.1,0,0.1-0.1,0.2-0.1c0,0,0.1-0.1,0.1-0.1
		c0,0,0.1-0.1,0.1-0.1l0.2,0.4c0,0-0.1,0.1-0.2,0.2c-0.1,0.1-0.2,0.1-0.3,0.2c-0.1,0.1-0.2,0.2-0.3,0.2c-0.1,0-0.1,0.1-0.2,0.1
		c-0.3,0-0.4,0-0.5-0.1c-0.1-0.1-0.2-0.2-0.3-0.5c0,0,0-0.1-0.1-0.1s0-0.1-0.1-0.1c0-0.1-0.1-0.1-0.1-0.2s0-0.1-0.1-0.1
		c0,0-0.1,0-0.2,0.1s-0.2,0.2-0.3,0.3c0,0,0-0.1-0.1-0.1C130.9,31.2,130.8,31.2,130.8,31C130.8,31.1,130.8,31.1,130.8,31
		C130.8,31,130.8,31,130.8,31z M132.6,27.5c0.1,0,0.1,0,0.2,0c0,0,0.1,0.1,0.1,0.1c0,0.1,0,0.2,0,0.2c0,0.1-0.1,0.2-0.1,0.3
		c0,0.1,0,0.1,0,0.1c0,0.1-0.1,0.1-0.1,0.2c0,0-0.1,0.1-0.2,0.1c-0.1,0-0.1,0.1-0.2,0.1c0,0-0.1,0-0.1,0c0,0-0.1,0-0.1,0
		c0,0-0.1,0-0.1,0c0,0-0.1-0.1-0.1-0.1c0-0.1,0-0.1,0-0.2c0-0.1,0.1-0.2,0.2-0.3c0.1-0.1,0.2-0.2,0.3-0.2c0-0.1,0.1-0.1,0.2-0.2
		c0,0,0.1,0,0.1-0.1C132.5,27.5,132.5,27.5,132.6,27.5z"/>
</g>
</svg>
